<svg width="78" height="77" viewBox="0 0 78 77" fill="none" xmlns="http://www.w3.org/2000/svg">
<rect width="78" height="77" rx="25" fill="#EA1D2C"/>
<ellipse cx="39" cy="38.5" rx="28.2414" ry="27.8793" fill="white"/>
<path d="M20.9046 38.5844C20.9444 48.014 28.7693 55.5921 38.423 55.5504C50.054 55.5 67.4286 38.3831 67.4286 38.3831C67.4286 38.3831 49.9102 21.4171 38.2792 21.4674C28.6255 21.5092 20.8648 29.1548 20.9046 38.5844ZM26.7201 38.5592C26.6935 32.2539 31.9061 27.1756 38.3032 27.1479C44.7584 27.12 49.9555 32.1532 49.9821 38.4586C50.0085 44.7071 44.8542 49.8419 38.399 49.8699C32.002 49.8976 26.7465 44.8078 26.7201 38.5592Z" fill="#EA1D2C"/>
<ellipse cx="37.6552" cy="39.8276" rx="13.4483" ry="13.2759" fill="#EA1D2C"/>
</svg>
