<svg width="400" height="400" viewBox="0 0 400 400" fill="none" xmlns="http://www.w3.org/2000/svg">
<path d="M0 200C0 89.5431 89.5431 0 200 0C310.457 0 400 89.5431 400 200C400 310.457 310.457 400 200 400C89.5431 400 0 310.457 0 200Z" fill="#EA1D2C"/>
<circle cx="200.001" cy="199.999" r="144.828" fill="white"/>
<path d="M107.204 200.439C107.408 249.424 147.535 288.791 197.041 288.574C256.688 288.312 345.788 199.393 345.788 199.393C345.788 199.393 255.95 111.258 196.304 111.519C146.798 111.736 106.999 151.454 107.204 200.439ZM137.027 200.308C136.89 167.553 163.622 141.172 196.427 141.029C229.531 140.883 256.182 167.03 256.319 199.785C256.454 232.245 230.022 258.919 196.919 259.065C164.113 259.208 137.162 232.768 137.027 200.308Z" fill="#EA1D2C"/>
<ellipse cx="193.104" cy="206.897" rx="68.9655" ry="68.9655" fill="#EA1D2C"/>
</svg>
