<svg width="19" height="21" viewBox="0 0 19 21" fill="none" xmlns="http://www.w3.org/2000/svg">
<path d="M17.9112 3.78709C16.3792 3.63484 14.8473 3.52066 13.3058 3.43502V3.4255L13.0965 2.18852C12.9537 1.31311 12.7444 0 10.5178 0H8.02482C5.80773 0 5.59839 1.25602 5.44615 2.179L5.24633 3.39696C4.3614 3.45405 3.47648 3.51114 2.59156 3.59678L0.650442 3.78709C0.2508 3.82515 -0.034659 4.17721 0.00340221 4.56734C0.0414634 4.95747 0.384014 5.24293 0.783656 5.20486L2.72478 5.01456C7.71082 4.51976 12.7349 4.71007 17.778 5.21438H17.8541C18.2157 5.21438 18.5297 4.93844 18.5678 4.56734C18.5963 4.17721 18.3109 3.82515 17.9112 3.78709Z" fill="white"/>
<path d="M16.1607 6.55616C15.9323 6.31827 15.6183 6.18506 15.2948 6.18506H3.2675C2.94398 6.18506 2.62046 6.31827 2.40161 6.55616C2.18276 6.79404 2.05906 7.11756 2.07809 7.45059L2.66804 17.2133C2.77271 18.6596 2.90592 20.4675 6.22676 20.4675H12.3355C15.6564 20.4675 15.7897 18.6691 15.8942 17.2133L16.4842 7.46011C16.5032 7.11756 16.3795 6.79404 16.1607 6.55616ZM10.8607 15.7003H7.69206C7.30198 15.7003 6.97846 15.3768 6.97846 14.9867C6.97846 14.5966 7.30198 14.2731 7.69206 14.2731H10.8607C11.2508 14.2731 11.5743 14.5966 11.5743 14.9867C11.5743 15.3768 11.2508 15.7003 10.8607 15.7003ZM11.6599 11.8942H6.90234C6.51221 11.8942 6.18869 11.5707 6.18869 11.1806C6.18869 10.7905 6.51221 10.4669 6.90234 10.4669H11.6599C12.0501 10.4669 12.3736 10.7905 12.3736 11.1806C12.3736 11.5707 12.0501 11.8942 11.6599 11.8942Z" fill="white"/>
</svg>
