<svg width="16" height="16" viewBox="0 0 16 16" fill="none" xmlns="http://www.w3.org/2000/svg">
<path d="M7.25102 10.3605L5.76877 11.8405C5.45629 12.1525 4.95954 12.1525 4.63905 11.8485C4.55092 11.7605 4.46278 11.6805 4.37465 11.5925C3.5494 10.7605 2.80426 9.88845 2.13925 8.97641C1.48225 8.06436 0.953449 7.15232 0.568865 6.24828C0.192292 5.33624 0 4.4642 0 3.63216C0 3.08814 0.0961461 2.56812 0.288438 2.08809C0.480731 1.60007 0.785194 1.15205 1.20984 0.752034C1.72262 0.248011 2.28347 0 2.87637 0C3.10071 0 3.32505 0.0480022 3.52536 0.144007C3.73368 0.240011 3.91796 0.384017 4.06217 0.592027L5.921 3.20814C6.06522 3.40815 6.16938 3.59216 6.24149 3.76817C6.3136 3.93618 6.35366 4.10419 6.35366 4.25619C6.35366 4.4482 6.29757 4.64021 6.1854 4.82422C6.08124 5.00823 5.92901 5.20023 5.73672 5.39224L5.12779 6.02427C5.03966 6.11228 4.9996 6.21628 4.9996 6.34429C4.9996 6.40829 5.00761 6.46429 5.02364 6.52829C5.04767 6.5923 5.07171 6.6403 5.08773 6.6883C5.23195 6.95231 5.48033 7.29633 5.83287 7.71235C6.19341 8.12837 6.578 8.55239 6.99463 8.97641C7.07475 9.05641 7.16289 9.13641 7.24301 9.21642C7.5635 9.52843 7.57151 10.0405 7.25102 10.3605Z" fill="#292D32"/>
<path d="M15.9999 13.0637C15.9999 13.2878 15.9599 13.5198 15.8797 13.7438C15.8557 13.8078 15.8317 13.8718 15.7996 13.9358C15.6634 14.2238 15.4871 14.4958 15.2548 14.7518C14.8622 15.1838 14.4295 15.4959 13.9408 15.6959C13.9328 15.6959 13.9248 15.7039 13.9168 15.7039C13.444 15.8959 12.9313 15.9999 12.3784 15.9999C11.5612 15.9999 10.6878 15.8079 9.76645 15.4159C8.84505 15.0238 7.92365 14.4958 7.01026 13.8318C6.69778 13.5998 6.38532 13.3678 6.08887 13.1197L8.70884 10.5036C8.93318 10.6716 9.13349 10.7996 9.30174 10.8876C9.3418 10.9036 9.38988 10.9277 9.44596 10.9517C9.51006 10.9757 9.57416 10.9837 9.64627 10.9837C9.78247 10.9837 9.88663 10.9357 9.97477 10.8476L10.5837 10.2476C10.784 10.0476 10.9763 9.8956 11.1606 9.7996C11.3448 9.68759 11.5291 9.63159 11.7294 9.63159C11.8817 9.63159 12.0419 9.66359 12.2182 9.7356C12.3944 9.8076 12.5787 9.9116 12.779 10.0476L15.4311 11.9277C15.6394 12.0717 15.7836 12.2397 15.8717 12.4397C15.9519 12.6397 15.9999 12.8397 15.9999 13.0637Z" fill="#292D32"/>
</svg>
