<svg width="37" height="48" viewBox="0 0 37 48" fill="none" xmlns="http://www.w3.org/2000/svg">
<path d="M24.4281 41.2967H12.6212C11.6784 41.2967 10.4784 41.185 9.68553 40.336C8.91412 39.5093 8.93554 38.4815 8.95697 37.7888V35.8003C3.55708 32.0466 0 25.5223 0 19.3108C0 13.4345 2.52852 7.93798 6.9213 4.25131C11.3141 0.564646 17.0782 -0.820641 22.7138 0.475272C28.0709 1.70416 32.6993 5.43552 35.0993 10.4628C39.7492 20.2269 35.2707 30.7953 28.1137 35.8226V37.4984C28.1351 38.1463 28.1566 39.3305 27.278 40.2689C26.6137 40.9393 25.6709 41.2967 24.4281 41.2967ZM12.1498 37.9229C12.2569 37.9229 12.4069 37.9452 12.5998 37.9452H24.4281C24.6423 37.9452 24.7923 37.9229 24.8781 37.9005C24.8781 37.8335 24.8781 37.7441 24.8781 37.6771V34.8618C24.8781 34.2809 25.1781 33.7223 25.6495 33.4319C31.9922 29.4324 36.1921 20.2939 32.1851 11.9151C30.2137 7.78158 26.3995 4.72053 21.9853 3.71507C17.3139 2.64259 12.5355 3.7821 8.89269 6.84315C5.2499 9.90421 3.17137 14.4399 3.17137 19.3108C3.17137 25.5223 7.28558 30.8847 11.3569 33.4542C11.8498 33.767 12.1283 34.3032 12.1283 34.8842V37.9005C12.1498 37.9005 12.1498 37.9005 12.1498 37.9229Z" fill="#EA1D2C"/>
<path d="M25.9928 47.9997C25.8428 47.9997 25.6928 47.9774 25.5428 47.9327C20.9143 46.5474 16.0501 46.5474 11.4215 47.9327C10.5644 48.1785 9.68586 47.6646 9.42873 46.7708C9.17159 45.8771 9.68586 44.961 10.543 44.6929C15.7287 43.1512 21.2358 43.1512 26.4214 44.6929C27.2785 44.9387 27.7713 45.8771 27.5356 46.7708C27.3428 47.5305 26.6999 47.9997 25.9928 47.9997Z" fill="#EA1D2C"/>
</svg>
