<svg width="164" height="60" viewBox="0 0 164 60" fill="none" xmlns="http://www.w3.org/2000/svg">
<rect y="10" width="161" height="32" fill="white"/>
<path d="M55.44 36.14V33.13H62.58C63.9567 33.13 65.0183 32.745 65.765 31.975C66.535 31.1817 66.92 30.1317 66.92 28.825C66.92 27.495 66.5467 26.4567 65.8 25.71C65.0533 24.94 63.98 24.555 62.58 24.555H55.44V22.315H62.09C63.7233 22.315 65.1583 22.5133 66.395 22.91C67.655 23.3067 68.635 23.9717 69.335 24.905C70.0583 25.815 70.42 27.0633 70.42 28.65V29.14C70.42 30.6333 70.1167 31.905 69.51 32.955C68.9033 33.9817 67.9817 34.775 66.745 35.335C65.5083 35.8717 63.9567 36.14 62.09 36.14H55.44ZM52.71 36.14V10.31H56.14V36.14H52.71ZM55.44 23.925V21.685H61.635C63.0817 21.685 64.1433 21.3 64.82 20.53C65.52 19.7367 65.87 18.7333 65.87 17.52C65.87 16.2833 65.52 15.28 64.82 14.51C64.1433 13.7167 63.0817 13.32 61.635 13.32H55.44V10.31H61.04C63.84 10.31 65.9283 10.905 67.305 12.095C68.6817 13.2617 69.37 14.9533 69.37 17.17V17.66C69.37 19.2233 69.02 20.4717 68.32 21.405C67.62 22.315 66.64 22.9683 65.38 23.365C64.1433 23.7383 62.6967 23.925 61.04 23.925H55.44ZM76.0091 36V17.31H78.6691V25.01H78.5291C78.5291 22.28 79.1241 20.285 80.3141 19.025C81.5274 17.7417 83.3357 17.1 85.7391 17.1H86.3691V20.11H85.1791C83.3124 20.11 81.8774 20.6117 80.8741 21.615C79.8707 22.595 79.3691 24.0183 79.3691 25.885V36H76.0091ZM98.1045 36.63C96.4711 36.63 95.0595 36.35 93.8695 35.79C92.6795 35.23 91.7111 34.495 90.9645 33.585C90.2178 32.6517 89.6578 31.6133 89.2845 30.47C88.9345 29.3267 88.7595 28.16 88.7595 26.97V26.34C88.7595 25.1267 88.9345 23.9483 89.2845 22.805C89.6578 21.6617 90.2178 20.635 90.9645 19.725C91.7111 18.7917 92.6561 18.0567 93.7995 17.52C94.9661 16.96 96.3311 16.68 97.8945 16.68C99.9245 16.68 101.593 17.1233 102.899 18.01C104.229 18.8733 105.209 19.9933 105.839 21.37C106.493 22.7467 106.819 24.2167 106.819 25.78V27.285H90.2295V24.765H104.369L103.599 26.13C103.599 24.8 103.389 23.6567 102.969 22.7C102.549 21.72 101.919 20.9617 101.079 20.425C100.239 19.8883 99.1778 19.62 97.8945 19.62C96.5645 19.62 95.4561 19.9233 94.5695 20.53C93.7061 21.1367 93.0528 21.965 92.6095 23.015C92.1895 24.065 91.9795 25.2783 91.9795 26.655C91.9795 27.985 92.1895 29.1867 92.6095 30.26C93.0528 31.31 93.7295 32.15 94.6395 32.78C95.5495 33.3867 96.7045 33.69 98.1045 33.69C99.5745 33.69 100.764 33.3633 101.674 32.71C102.608 32.0567 103.168 31.2983 103.354 30.435H106.504C106.248 31.7183 105.734 32.8267 104.964 33.76C104.194 34.6933 103.226 35.405 102.059 35.895C100.893 36.385 99.5745 36.63 98.1045 36.63ZM122.895 36V30.4H122.335V23.925C122.335 22.6417 121.997 21.6733 121.32 21.02C120.667 20.3667 119.698 20.04 118.415 20.04C117.692 20.04 116.945 20.0517 116.175 20.075C115.405 20.0983 114.67 20.1217 113.97 20.145C113.27 20.1683 112.663 20.2033 112.15 20.25V17.31C112.663 17.2633 113.2 17.2283 113.76 17.205C114.343 17.1583 114.938 17.135 115.545 17.135C116.152 17.1117 116.735 17.1 117.295 17.1C119.208 17.1 120.772 17.3333 121.985 17.8C123.198 18.2433 124.097 18.9783 124.68 20.005C125.263 21.0317 125.555 22.42 125.555 24.17V36H122.895ZM116.77 36.49C115.37 36.49 114.157 36.2567 113.13 35.79C112.127 35.3 111.345 34.6 110.785 33.69C110.248 32.78 109.98 31.6833 109.98 30.4C109.98 29.07 110.272 27.9617 110.855 27.075C111.462 26.1883 112.337 25.5233 113.48 25.08C114.623 24.6133 116 24.38 117.61 24.38H122.685V26.9H117.47C116.117 26.9 115.078 27.2267 114.355 27.88C113.632 28.5333 113.27 29.3733 113.27 30.4C113.27 31.4267 113.632 32.255 114.355 32.885C115.078 33.515 116.117 33.83 117.47 33.83C118.263 33.83 119.022 33.69 119.745 33.41C120.468 33.1067 121.063 32.6167 121.53 31.94C122.02 31.24 122.288 30.2833 122.335 29.07L123.245 30.4C123.128 31.73 122.802 32.85 122.265 33.76C121.752 34.6467 121.028 35.3233 120.095 35.79C119.185 36.2567 118.077 36.49 116.77 36.49ZM139.527 36.63C138.197 36.63 136.972 36.385 135.852 35.895C134.732 35.405 133.752 34.7167 132.912 33.83C132.095 32.9433 131.454 31.9167 130.987 30.75C130.544 29.5833 130.322 28.3233 130.322 26.97V26.34C130.322 25.01 130.544 23.7617 130.987 22.595C131.43 21.4283 132.049 20.4017 132.842 19.515C133.659 18.6283 134.615 17.94 135.712 17.45C136.832 16.9367 138.069 16.68 139.422 16.68C140.845 16.68 142.14 16.9833 143.307 17.59C144.474 18.1733 145.43 19.095 146.177 20.355C146.924 21.615 147.344 23.2483 147.437 25.255L146.037 23.015V10.45H149.397V36H146.737V27.705H147.717C147.624 29.8283 147.18 31.555 146.387 32.885C145.594 34.1917 144.59 35.1483 143.377 35.755C142.187 36.3383 140.904 36.63 139.527 36.63ZM139.982 33.69C141.125 33.69 142.164 33.4333 143.097 32.92C144.03 32.4067 144.777 31.6717 145.337 30.715C145.897 29.735 146.177 28.5917 146.177 27.285V25.675C146.177 24.3917 145.885 23.3067 145.302 22.42C144.742 21.51 143.984 20.8217 143.027 20.355C142.094 19.865 141.067 19.62 139.947 19.62C138.71 19.62 137.614 19.9117 136.657 20.495C135.724 21.0783 134.989 21.895 134.452 22.945C133.939 23.995 133.682 25.2317 133.682 26.655C133.682 28.0783 133.95 29.3267 134.487 30.4C135.024 31.45 135.77 32.2667 136.727 32.85C137.684 33.41 138.769 33.69 139.982 33.69Z" fill="black"/>
<path d="M155.573 27.705V10.45H160.543V27.705H155.573ZM155.188 36V30.82H160.928V36H155.188Z" fill="#EA1D2C"/>
<path d="M10.115 41.63C9.18167 41.63 8.225 41.595 7.245 41.525C6.265 41.455 5.36667 41.3617 4.55 41.245V36.52C5.36667 36.6367 6.265 36.73 7.245 36.8C8.24833 36.8933 9.15833 36.94 9.975 36.94C11.4917 36.94 12.7167 36.765 13.65 36.415C14.6067 36.065 15.3067 35.5283 15.75 34.805C16.1933 34.105 16.415 33.195 16.415 32.075V28.26L17.43 26.02C17.3833 27.7233 17.045 29.1817 16.415 30.395C15.8083 31.6083 14.9567 32.5417 13.86 33.195C12.7633 33.825 11.4567 34.14 9.94 34.14C8.63333 34.14 7.44333 33.9067 6.37 33.44C5.32 32.95 4.42167 32.2733 3.675 31.41C2.92833 30.5467 2.35667 29.5433 1.96 28.4C1.56333 27.2333 1.365 25.9733 1.365 24.62V23.815C1.365 22.4617 1.575 21.2017 1.995 20.035C2.415 18.8683 3.02167 17.8533 3.815 16.99C4.60833 16.1267 5.55333 15.4617 6.65 14.995C7.74667 14.505 8.96 14.26 10.29 14.26C11.83 14.26 13.16 14.5983 14.28 15.275C15.4233 15.9517 16.3217 16.9433 16.975 18.25C17.6283 19.5567 17.9783 21.1317 18.025 22.975L17.255 23.185V14.82H21.7V31.725C21.7 34.0817 21.28 35.9833 20.44 37.43C19.6 38.8767 18.3167 39.9383 16.59 40.615C14.8867 41.2917 12.7283 41.63 10.115 41.63ZM11.69 29.415C12.5533 29.415 13.335 29.2283 14.035 28.855C14.735 28.4583 15.2833 27.8983 15.68 27.175C16.1 26.4517 16.31 25.5767 16.31 24.55V23.535C16.31 22.5317 16.0883 21.6917 15.645 21.015C15.225 20.315 14.665 19.79 13.965 19.44C13.265 19.0667 12.5183 18.88 11.725 18.88C10.7917 18.88 9.96333 19.1017 9.24 19.545C8.51667 19.9883 7.95667 20.6067 7.56 21.4C7.16333 22.1933 6.965 23.1267 6.965 24.2C6.965 25.2967 7.16333 26.2417 7.56 27.035C7.98 27.805 8.54 28.4 9.24 28.82C9.96333 29.2167 10.78 29.415 11.69 29.415Z" fill="#EA1D2C"/>
<rect x="26" y="14" width="22" height="22" rx="6" fill="#EA1D2C"/>
<circle cx="37" cy="25" r="7.96552" fill="white"/>
<path d="M31.8962 25.0241C31.9074 27.7183 34.1144 29.8835 36.8373 29.8715C40.1178 29.8571 45.0183 24.9666 45.0183 24.9666C45.0183 24.9666 40.0773 20.1192 36.7967 20.1335C34.0739 20.1455 31.885 22.3299 31.8962 25.0241ZM33.5365 25.0169C33.529 23.2154 34.9992 21.7645 36.8035 21.7565C38.6242 21.7486 40.09 23.1866 40.0975 24.9882C40.105 26.7735 38.6512 28.2405 36.8305 28.2485C35.0262 28.2564 33.5439 26.8022 33.5365 25.0169Z" fill="#EA1D2C"/>
<circle cx="36.6207" cy="25.3793" r="3.7931" fill="#EA1D2C"/>
</svg>
