<svg width="162" height="44" viewBox="0 0 162 44" fill="none" xmlns="http://www.w3.org/2000/svg">
<rect x="26" y="14" width="20" height="20" rx="6" fill="white"/>
<circle cx="36" cy="24" r="7.24138" fill="black"/>
<path d="M31.3602 24.0219C31.3704 26.4711 33.3767 28.4395 35.8521 28.4286C38.8344 28.4156 43.2894 23.9696 43.2894 23.9696C43.2894 23.9696 38.7975 19.5629 35.8152 19.5759C33.3399 19.5868 31.35 21.5726 31.3602 24.0219ZM32.8513 24.0154C32.8445 22.3776 34.1811 21.0586 35.8213 21.0514C37.4765 21.0441 38.8091 22.3515 38.8159 23.9892C38.8227 25.6122 37.5011 26.9459 35.8459 26.9532C34.2056 26.9604 32.8581 25.6383 32.8513 24.0154Z" fill="white"/>
<circle cx="35.6552" cy="24.3448" r="3.44828" fill="white"/>
<path d="M10.115 41.63C9.18167 41.63 8.225 41.595 7.245 41.525C6.265 41.455 5.36667 41.3617 4.55 41.245V36.52C5.36667 36.6367 6.265 36.73 7.245 36.8C8.24833 36.8933 9.15833 36.94 9.975 36.94C11.4917 36.94 12.7167 36.765 13.65 36.415C14.6067 36.065 15.3067 35.5283 15.75 34.805C16.1933 34.105 16.415 33.195 16.415 32.075V28.26L17.43 26.02C17.3833 27.7233 17.045 29.1817 16.415 30.395C15.8083 31.6083 14.9567 32.5417 13.86 33.195C12.7633 33.825 11.4567 34.14 9.94 34.14C8.63333 34.14 7.44333 33.9067 6.37 33.44C5.32 32.95 4.42167 32.2733 3.675 31.41C2.92833 30.5467 2.35667 29.5433 1.96 28.4C1.56333 27.2333 1.365 25.9733 1.365 24.62V23.815C1.365 22.4617 1.575 21.2017 1.995 20.035C2.415 18.8683 3.02167 17.8533 3.815 16.99C4.60833 16.1267 5.55333 15.4617 6.65 14.995C7.74667 14.505 8.96 14.26 10.29 14.26C11.83 14.26 13.16 14.5983 14.28 15.275C15.4233 15.9517 16.3217 16.9433 16.975 18.25C17.6283 19.5567 17.9783 21.1317 18.025 22.975L17.255 23.185V14.82H21.7V31.725C21.7 34.0817 21.28 35.9833 20.44 37.43C19.6 38.8767 18.3167 39.9383 16.59 40.615C14.8867 41.2917 12.7283 41.63 10.115 41.63ZM11.69 29.415C12.5533 29.415 13.335 29.2283 14.035 28.855C14.735 28.4583 15.2833 27.8983 15.68 27.175C16.1 26.4517 16.31 25.5767 16.31 24.55V23.535C16.31 22.5317 16.0883 21.6917 15.645 21.015C15.225 20.315 14.665 19.79 13.965 19.44C13.265 19.0667 12.5183 18.88 11.725 18.88C10.7917 18.88 9.96333 19.1017 9.24 19.545C8.51667 19.9883 7.95667 20.6067 7.56 21.4C7.16333 22.1933 6.965 23.1267 6.965 24.2C6.965 25.2967 7.16333 26.2417 7.56 27.035C7.98 27.805 8.54 28.4 9.24 28.82C9.96333 29.2167 10.78 29.415 11.69 29.415Z" fill="white"/>
<path d="M52.985 34.105V31.76H60.475C61.9917 31.76 63.17 31.3283 64.01 30.465C64.8733 29.5783 65.305 28.4117 65.305 26.965C65.305 25.5417 64.885 24.3983 64.045 23.535C63.205 22.6483 62.015 22.205 60.475 22.205H52.985V20.455H60.09C61.63 20.455 62.995 20.6767 64.185 21.12C65.375 21.54 66.3083 22.2167 66.985 23.15C67.6617 24.0833 68 25.3083 68 26.825V27.245C68 28.6217 67.7083 29.835 67.125 30.885C66.5417 31.9117 65.6667 32.705 64.5 33.265C63.3333 33.825 61.8633 34.105 60.09 34.105H52.985ZM50.99 34.105V8.345H53.65V34.105H50.99ZM52.985 21.715V19.965H59.53C61.14 19.965 62.33 19.5333 63.1 18.67C63.87 17.7833 64.255 16.675 64.255 15.345C64.255 13.9683 63.87 12.8483 63.1 11.985C62.33 11.1217 61.14 10.69 59.53 10.69H52.985V8.345H59.075C61.7117 8.345 63.6833 8.94 64.99 10.13C66.2967 11.32 66.95 12.965 66.95 15.065V15.485C66.95 16.955 66.6233 18.1567 65.97 19.09C65.3167 20 64.395 20.665 63.205 21.085C62.0383 21.505 60.6617 21.715 59.075 21.715H52.985ZM73.9448 34V15.485H76.0448V23.22H75.8348C75.8348 20.5133 76.4298 18.5183 77.6198 17.235C78.8098 15.9283 80.6765 15.275 83.2198 15.275H83.8148V17.655H82.7298C80.7231 17.655 79.1948 18.18 78.1448 19.23C77.0948 20.2567 76.5698 21.7733 76.5698 23.78V34H73.9448ZM95.5568 34.595C93.9701 34.595 92.5934 34.3267 91.4268 33.79C90.2601 33.23 89.3034 32.495 88.5568 31.585C87.8101 30.6517 87.2501 29.6133 86.8768 28.47C86.5268 27.3267 86.3518 26.1483 86.3518 24.935V24.445C86.3518 23.255 86.5268 22.0883 86.8768 20.945C87.2501 19.8017 87.8101 18.775 88.5568 17.865C89.3034 16.955 90.2368 16.2317 91.3568 15.695C92.5001 15.135 93.8301 14.855 95.3468 14.855C97.2834 14.855 98.8934 15.2867 100.177 16.15C101.483 17.0133 102.463 18.1217 103.117 19.475C103.77 20.805 104.097 22.24 104.097 23.78V25.145H87.5418V23.115H102.277L101.612 24.13C101.612 22.7533 101.367 21.5517 100.877 20.525C100.41 19.475 99.7101 18.6583 98.7768 18.075C97.8668 17.4683 96.7234 17.165 95.3468 17.165C93.9001 17.165 92.6984 17.5033 91.7418 18.18C90.7851 18.8567 90.0618 19.755 89.5718 20.875C89.1051 21.995 88.8718 23.2667 88.8718 24.69C88.8718 26.09 89.1051 27.3733 89.5718 28.54C90.0618 29.6833 90.7968 30.5933 91.7768 31.27C92.7801 31.9467 94.0401 32.285 95.5568 32.285C97.1668 32.285 98.4734 31.9233 99.4768 31.2C100.48 30.4533 101.098 29.5783 101.332 28.575H103.782C103.548 29.8117 103.058 30.885 102.312 31.795C101.565 32.6817 100.62 33.37 99.4768 33.86C98.3334 34.35 97.0268 34.595 95.5568 34.595ZM120.42 34V28.435H120V21.855C120 20.4783 119.638 19.4283 118.915 18.705C118.192 17.9583 117.072 17.585 115.555 17.585C114.855 17.585 114.143 17.5967 113.42 17.62C112.72 17.6433 112.043 17.6783 111.39 17.725C110.76 17.7483 110.2 17.7833 109.71 17.83V15.52C110.223 15.4733 110.748 15.4267 111.285 15.38C111.822 15.3333 112.37 15.31 112.93 15.31C113.513 15.2867 114.073 15.275 114.61 15.275C116.5 15.275 118.017 15.5083 119.16 15.975C120.327 16.4417 121.178 17.1767 121.715 18.18C122.252 19.16 122.52 20.4667 122.52 22.1V34H120.42ZM114.155 34.49C112.848 34.49 111.693 34.2567 110.69 33.79C109.687 33.3233 108.905 32.6467 108.345 31.76C107.808 30.8733 107.54 29.8 107.54 28.54C107.54 27.3033 107.82 26.2533 108.38 25.39C108.963 24.5267 109.792 23.8733 110.865 23.43C111.962 22.9633 113.28 22.73 114.82 22.73H120.245V24.725H114.645C113.175 24.725 112.043 25.0867 111.25 25.81C110.48 26.51 110.095 27.4317 110.095 28.575C110.095 29.7417 110.503 30.675 111.32 31.375C112.137 32.0517 113.245 32.39 114.645 32.39C115.508 32.39 116.337 32.2383 117.13 31.935C117.923 31.6083 118.588 31.0717 119.125 30.325C119.662 29.555 119.953 28.505 120 27.175L120.77 28.26C120.677 29.6367 120.35 30.7917 119.79 31.725C119.23 32.635 118.472 33.3233 117.515 33.79C116.558 34.2567 115.438 34.49 114.155 34.49ZM136.672 34.595C135.318 34.595 134.082 34.35 132.962 33.86C131.865 33.3467 130.908 32.6467 130.092 31.76C129.298 30.85 128.68 29.8233 128.237 28.68C127.817 27.5133 127.607 26.2767 127.607 24.97V24.48C127.607 23.22 127.817 22.0183 128.237 20.875C128.657 19.7083 129.252 18.6817 130.022 17.795C130.815 16.885 131.76 16.1733 132.857 15.66C133.977 15.1233 135.225 14.855 136.602 14.855C138.165 14.855 139.542 15.1933 140.732 15.87C141.922 16.5467 142.878 17.5267 143.602 18.81C144.325 20.07 144.71 21.6217 144.757 23.465L143.602 21.295V8.45H146.227V34H144.127V25.775H144.967C144.92 27.7117 144.512 29.345 143.742 30.675C142.995 31.9817 142.003 32.9617 140.767 33.615C139.553 34.2683 138.188 34.595 136.672 34.595ZM137.022 32.285C138.282 32.285 139.413 32.005 140.417 31.445C141.443 30.885 142.248 30.0917 142.832 29.065C143.415 28.015 143.707 26.8133 143.707 25.46V23.78C143.707 22.4733 143.415 21.33 142.832 20.35C142.248 19.3467 141.443 18.565 140.417 18.005C139.413 17.445 138.27 17.165 136.987 17.165C135.61 17.165 134.408 17.5033 133.382 18.18C132.378 18.8333 131.597 19.7317 131.037 20.875C130.5 22.0183 130.232 23.3017 130.232 24.725C130.232 26.195 130.512 27.5017 131.072 28.645C131.632 29.7883 132.425 30.6867 133.452 31.34C134.478 31.97 135.668 32.285 137.022 32.285ZM152.547 25.705V8.45H157.517V25.705H152.547ZM152.162 34V28.82H157.902V34H152.162Z" fill="white"/>
</svg>
