<svg width="277" height="83" viewBox="0 0 277 83" fill="none" xmlns="http://www.w3.org/2000/svg">
<rect width="277" height="83" fill="white"/>
<path d="M98.2 56.2V51.9H108.4C110.367 51.9 111.883 51.35 112.95 50.25C114.05 49.1167 114.6 47.6167 114.6 45.75C114.6 43.85 114.067 42.3667 113 41.3C111.933 40.2 110.4 39.65 108.4 39.65H98.2V36.45H107.7C110.033 36.45 112.083 36.7333 113.85 37.3C115.65 37.8667 117.05 38.8167 118.05 40.15C119.083 41.45 119.6 43.2333 119.6 45.5V46.2C119.6 48.3333 119.167 50.15 118.3 51.65C117.433 53.1167 116.117 54.25 114.35 55.05C112.583 55.8167 110.367 56.2 107.7 56.2H98.2ZM94.3 56.2V19.3H99.2V56.2H94.3ZM98.2 38.75V35.55H107.05C109.117 35.55 110.633 35 111.6 33.9C112.6 32.7667 113.1 31.3333 113.1 29.6C113.1 27.8333 112.6 26.4 111.6 25.3C110.633 24.1667 109.117 23.6 107.05 23.6H98.2V19.3H106.2C110.2 19.3 113.183 20.15 115.15 21.85C117.117 23.5167 118.1 25.9333 118.1 29.1V29.8C118.1 32.0333 117.6 33.8167 116.6 35.15C115.6 36.45 114.2 37.3833 112.4 37.95C110.633 38.4833 108.567 38.75 106.2 38.75H98.2ZM127.584 56V29.3H131.384V40.3H131.184C131.184 36.4 132.034 33.55 133.734 31.75C135.468 29.9167 138.051 29 141.484 29H142.384V33.3H140.684C138.018 33.3 135.968 34.0167 134.534 35.45C133.101 36.85 132.384 38.8833 132.384 41.55V56H127.584ZM159.149 56.9C156.816 56.9 154.799 56.5 153.099 55.7C151.399 54.9 150.016 53.85 148.949 52.55C147.883 51.2167 147.083 49.7333 146.549 48.1C146.049 46.4667 145.799 44.8 145.799 43.1V42.2C145.799 40.4667 146.049 38.7833 146.549 37.15C147.083 35.5167 147.883 34.05 148.949 32.75C150.016 31.4167 151.366 30.3667 152.999 29.6C154.666 28.8 156.616 28.4 158.849 28.4C161.749 28.4 164.133 29.0333 165.999 30.3C167.899 31.5333 169.299 33.1333 170.199 35.1C171.133 37.0667 171.599 39.1667 171.599 41.4V43.55H147.899V39.95H168.099L166.999 41.9C166.999 40 166.699 38.3667 166.099 37C165.499 35.6 164.599 34.5167 163.399 33.75C162.199 32.9833 160.683 32.6 158.849 32.6C156.949 32.6 155.366 33.0333 154.099 33.9C152.866 34.7667 151.933 35.95 151.299 37.45C150.699 38.95 150.399 40.6833 150.399 42.65C150.399 44.55 150.699 46.2667 151.299 47.8C151.933 49.3 152.899 50.5 154.199 51.4C155.499 52.2667 157.149 52.7 159.149 52.7C161.249 52.7 162.949 52.2333 164.249 51.3C165.583 50.3667 166.383 49.2833 166.649 48.05H171.149C170.783 49.8833 170.049 51.4667 168.949 52.8C167.849 54.1333 166.466 55.15 164.799 55.85C163.133 56.55 161.249 56.9 159.149 56.9ZM194.564 56V48H193.764V38.75C193.764 36.9167 193.281 35.5333 192.314 34.6C191.381 33.6667 189.998 33.2 188.164 33.2C187.131 33.2 186.064 33.2167 184.964 33.25C183.864 33.2833 182.814 33.3167 181.814 33.35C180.814 33.3833 179.948 33.4333 179.214 33.5V29.3C179.948 29.2333 180.714 29.1833 181.514 29.15C182.348 29.0833 183.198 29.05 184.064 29.05C184.931 29.0167 185.764 29 186.564 29C189.298 29 191.531 29.3333 193.264 30C194.998 30.6333 196.281 31.6833 197.114 33.15C197.948 34.6167 198.364 36.6 198.364 39.1V56H194.564ZM185.814 56.7C183.814 56.7 182.081 56.3667 180.614 55.7C179.181 55 178.064 54 177.264 52.7C176.498 51.4 176.114 49.8333 176.114 48C176.114 46.1 176.531 44.5167 177.364 43.25C178.231 41.9833 179.481 41.0333 181.114 40.4C182.748 39.7333 184.714 39.4 187.014 39.4H194.264V43H186.814C184.881 43 183.398 43.4667 182.364 44.4C181.331 45.3333 180.814 46.5333 180.814 48C180.814 49.4667 181.331 50.65 182.364 51.55C183.398 52.45 184.881 52.9 186.814 52.9C187.948 52.9 189.031 52.7 190.064 52.3C191.098 51.8667 191.948 51.1667 192.614 50.2C193.314 49.2 193.698 47.8333 193.764 46.1L195.064 48C194.898 49.9 194.431 51.5 193.664 52.8C192.931 54.0667 191.898 55.0333 190.564 55.7C189.264 56.3667 187.681 56.7 185.814 56.7ZM218.324 56.9C216.424 56.9 214.674 56.55 213.074 55.85C211.474 55.15 210.074 54.1667 208.874 52.9C207.708 51.6333 206.791 50.1667 206.124 48.5C205.491 46.8333 205.174 45.0333 205.174 43.1V42.2C205.174 40.3 205.491 38.5167 206.124 36.85C206.758 35.1833 207.641 33.7167 208.774 32.45C209.941 31.1833 211.308 30.2 212.874 29.5C214.474 28.7667 216.241 28.4 218.174 28.4C220.208 28.4 222.058 28.8333 223.724 29.7C225.391 30.5333 226.758 31.85 227.824 33.65C228.891 35.45 229.491 37.7833 229.624 40.65L227.624 37.45V19.5H232.424V56H228.624V44.15H230.024C229.891 47.1833 229.258 49.65 228.124 51.55C226.991 53.4167 225.558 54.7833 223.824 55.65C222.124 56.4833 220.291 56.9 218.324 56.9ZM218.974 52.7C220.608 52.7 222.091 52.3333 223.424 51.6C224.758 50.8667 225.824 49.8167 226.624 48.45C227.424 47.05 227.824 45.4167 227.824 43.55V41.25C227.824 39.4167 227.408 37.8667 226.574 36.6C225.774 35.3 224.691 34.3167 223.324 33.65C221.991 32.95 220.524 32.6 218.924 32.6C217.158 32.6 215.591 33.0167 214.224 33.85C212.891 34.6833 211.841 35.85 211.074 37.35C210.341 38.85 209.974 40.6167 209.974 42.65C209.974 44.6833 210.358 46.4667 211.124 48C211.891 49.5 212.958 50.6667 214.324 51.5C215.691 52.3 217.241 52.7 218.974 52.7Z" fill="black"/>
<path d="M241.247 44.15V19.5H248.347V44.15H241.247ZM240.697 56V48.6H248.897V56H240.697Z" fill="#EA1D2C"/>
<path d="M36.45 66.9C35.1167 66.9 33.75 66.85 32.35 66.75C30.95 66.65 29.6667 66.5167 28.5 66.35V59.6C29.6667 59.7667 30.95 59.9 32.35 60C33.7833 60.1333 35.0833 60.2 36.25 60.2C38.4167 60.2 40.1667 59.95 41.5 59.45C42.8667 58.95 43.8667 58.1833 44.5 57.15C45.1333 56.15 45.45 54.85 45.45 53.25V47.8L46.9 44.6C46.8333 47.0333 46.35 49.1167 45.45 50.85C44.5833 52.5833 43.3667 53.9167 41.8 54.85C40.2333 55.75 38.3667 56.2 36.2 56.2C34.3333 56.2 32.6333 55.8667 31.1 55.2C29.6 54.5 28.3167 53.5333 27.25 52.3C26.1833 51.0667 25.3667 49.6333 24.8 48C24.2333 46.3333 23.95 44.5333 23.95 42.6V41.45C23.95 39.5167 24.25 37.7167 24.85 36.05C25.45 34.3833 26.3167 32.9333 27.45 31.7C28.5833 30.4667 29.9333 29.5167 31.5 28.85C33.0667 28.15 34.8 27.8 36.7 27.8C38.9 27.8 40.8 28.2833 42.4 29.25C44.0333 30.2167 45.3167 31.6333 46.25 33.5C47.1833 35.3667 47.6833 37.6167 47.75 40.25L46.65 40.55V28.6H53V52.75C53 56.1167 52.4 58.8333 51.2 60.9C50 62.9667 48.1667 64.4833 45.7 65.45C43.2667 66.4167 40.1833 66.9 36.45 66.9ZM38.7 49.45C39.9333 49.45 41.05 49.1833 42.05 48.65C43.05 48.0833 43.8333 47.2833 44.4 46.25C45 45.2167 45.3 43.9667 45.3 42.5V41.05C45.3 39.6167 44.9833 38.4167 44.35 37.45C43.75 36.45 42.95 35.7 41.95 35.2C40.95 34.6667 39.8833 34.4 38.75 34.4C37.4167 34.4 36.2333 34.7167 35.2 35.35C34.1667 35.9833 33.3667 36.8667 32.8 38C32.2333 39.1333 31.95 40.4667 31.95 42C31.95 43.5667 32.2333 44.9167 32.8 46.05C33.4 47.15 34.2 48 35.2 48.6C36.2333 49.1667 37.4 49.45 38.7 49.45Z" fill="#EA1D2C"/>
<rect x="59" y="28" width="29" height="29" rx="6" fill="#EA1D2C"/>
<circle cx="73.5" cy="42.5" r="10.5" fill="white"/>
<path d="M66.7721 42.5318C66.7869 46.0832 69.6961 48.9373 73.2853 48.9216C77.6097 48.9026 84.0695 42.456 84.0695 42.456C84.0695 42.456 77.5562 36.0662 73.2319 36.0851C69.6427 36.1009 66.7573 38.9804 66.7721 42.5318ZM68.9343 42.5223C68.9244 40.1476 70.8624 38.235 73.2408 38.2245C75.6408 38.214 77.5731 40.1096 77.583 42.4844C77.5928 44.8377 75.6764 46.7716 73.2764 46.7822C70.898 46.7926 68.9441 44.8756 68.9343 42.5223Z" fill="#EA1D2C"/>
<circle cx="73" cy="43" r="5" fill="#EA1D2C"/>
</svg>
