<svg width="25" height="25" viewBox="0 0 25 25" fill="none" xmlns="http://www.w3.org/2000/svg">
<path opacity="0.4" d="M12.5 24.9997C19.4035 24.9997 25 19.4034 25 12.4999C25 5.59638 19.4035 0 12.5 0C5.59644 0 0 5.59638 0 12.4999C0 19.4034 5.59644 24.9997 12.5 24.9997Z" fill="#EA1D2C"/>
<path d="M12.5 6.16211C9.9125 6.16211 7.8125 8.26209 7.8125 10.8495C7.8125 13.387 9.8 15.4495 12.4375 15.5245H12.55H12.6375H12.6625C15.1875 15.437 17.175 13.387 17.1875 10.8495C17.1875 8.26209 15.0875 6.16211 12.5 6.16211Z" fill="#EA1D2C"/>
<path d="M20.9754 21.6876C18.7504 23.7375 15.7754 25 12.5004 25C9.22539 25 6.25039 23.7375 4.02539 21.6876C4.32539 20.5501 5.13789 19.5126 6.32539 18.7126C9.73789 16.4376 15.2879 16.4376 18.6754 18.7126C19.8754 19.5126 20.6754 20.5501 20.9754 21.6876Z" fill="#EA1D2C"/>
</svg>
