<svg width="17" height="20" viewBox="0 0 17 20" fill="none" xmlns="http://www.w3.org/2000/svg">
<path d="M8.5 20C7.78324 20 7.08486 19.6279 6.60703 18.9767L5.67892 17.7209C5.48595 17.4605 5.22865 17.3116 4.95297 17.293C4.6773 17.2837 4.40162 17.4047 4.18108 17.6372L3.6573 17.1628L4.1627 17.6372C2.83946 19.0698 1.81946 18.9581 1.33243 18.7628C0.836216 18.5674 0 17.9256 0 15.8605V5.38605C0 1.25581 1.17622 0 5.02649 0H11.9735C15.8238 0 17 1.25581 17 5.38605V15.8605C17 17.9163 16.1638 18.5581 15.6676 18.7628C15.1805 18.9581 14.1697 19.0698 12.8373 17.6372C12.6168 17.3953 12.3503 17.2651 12.0562 17.293C11.7805 17.3116 11.5141 17.4605 11.3211 17.7209L10.393 18.9767C9.91514 19.6279 9.21676 20 8.5 20ZM4.89784 15.8884H5.0173C5.6973 15.9256 6.34054 16.2884 6.77243 16.8744L7.70054 18.1302C8.15081 18.7349 8.84 18.7349 9.29027 18.1302L10.2184 16.8744C10.6595 16.2884 11.2935 15.9256 11.9827 15.8884C12.6627 15.8512 13.3427 16.1395 13.8389 16.6791C14.5373 17.4326 14.9968 17.5256 15.153 17.4605C15.3735 17.3674 15.6124 16.8279 15.6124 15.8605V5.38605C15.6124 2.02791 15.0335 1.39535 11.9643 1.39535H5.02649C1.9573 1.39535 1.37838 2.02791 1.37838 5.38605V15.8605C1.37838 16.8372 1.6173 17.3767 1.83784 17.4605C1.99405 17.5256 2.45351 17.4326 3.15189 16.6791C3.64811 16.1674 4.26378 15.8884 4.89784 15.8884Z" fill="#EA1D2C"/>
<path d="M12.1753 6.04623H4.82395C4.4472 6.04623 4.13477 5.72995 4.13477 5.34855C4.13477 4.96716 4.4472 4.65088 4.82395 4.65088H12.1753C12.5521 4.65088 12.8645 4.96716 12.8645 5.34855C12.8645 5.72995 12.5521 6.04623 12.1753 6.04623Z" fill="#EA1D2C"/>
<path d="M11.2564 9.76742H5.7429C5.36614 9.76742 5.05371 9.45114 5.05371 9.06974C5.05371 8.68835 5.36614 8.37207 5.7429 8.37207H11.2564C11.6332 8.37207 11.9456 8.68835 11.9456 9.06974C11.9456 9.45114 11.6332 9.76742 11.2564 9.76742Z" fill="#EA1D2C"/>
</svg>
