<svg width="26" height="22" viewBox="0 0 26 22" fill="none" xmlns="http://www.w3.org/2000/svg">
<path d="M18.5873 0H15.3218C11.3029 0 8.79102 2.2 8.79102 5.72V10.175H14.3673L11.7676 7.898C11.5792 7.733 11.4913 7.524 11.4913 7.315C11.4913 7.106 11.5792 6.897 11.7676 6.732C12.1318 6.413 12.7346 6.413 13.0988 6.732L17.3062 10.417C17.6704 10.736 17.6704 11.264 17.3062 11.583L13.0988 15.268C12.7346 15.587 12.1318 15.587 11.7676 15.268C11.4033 14.949 11.4033 14.421 11.7676 14.102L14.3673 11.825H8.79102V16.28C8.79102 19.8 11.3029 22 15.3218 22H18.5747C22.5937 22 25.1055 19.8 25.1055 16.28V5.72C25.1181 2.2 22.6062 0 18.5873 0Z" fill="#EA1D2C"/>
<path d="M0.941946 10.1753C0.427015 10.1753 0 10.5493 0 11.0003C0 11.4513 0.427015 11.8253 0.941946 11.8253H8.7915V10.1753H0.941946Z" fill="#EA1D2C"/>
</svg>
